
      <svg
        width="550"
        height="353"
        viewBox="0 0 550 353"
        fill="none"
        xmlns="http://www.w3.org/2000/svg"
        role="img"
        aria-labelledby="descId"
      >
        <title id="titleId">Jason Ernst's GitHub Statistics</title>
        <desc id="descId">Stars: 1878, Forks: 243, Contributions: 25963, Current streak: 11 days, Longest streak: 39 days</desc>
        <style>
          .header {
            font: 600 18px 'Segoe UI', Ubuntu, Sans-Serif;
            fill: #fff;
            animation: fadeInAnimation 0.8s ease-in-out forwards;
          }
          @supports(-moz-appearance: auto) {
            /* Selector detects Firefox */
            .header { font-size: 15.5px; }
          }
          
    .stat {
      font: 600 14px 'Segoe UI', Ubuntu, "Helvetica Neue", Sans-Serif; fill: #9f9f9f;
    }
    @supports(-moz-appearance: auto) {
      .stat { font-size:12px; }
    }
    .stagger {
      opacity: 0;
      animation: fadeInAnimation 0.3s ease-in-out forwards;
    }
    .bold { font-weight: 700 }
    .icon {
      fill: #79ff97;
      display: block;
    }
    .lang-name {
      font: 600 14px 'Segoe UI', Ubuntu, Sans-Serif;
      fill: #9f9f9f;
    }
    .streak-number {
      font: 700 24px 'Segoe UI', Ubuntu, Sans-Serif;
      fill: #9f9f9f;
    }
    .streak-label {
      font: 400 12px 'Segoe UI', Ubuntu, Sans-Serif;
      fill: #9f9f9f;
    }
    .streak-label-current {
      font: 700 12px 'Segoe UI', Ubuntu, Sans-Serif;
      fill: #FB8C00;
    }
    .streak-label-longest {
      font: 700 12px 'Segoe UI', Ubuntu, Sans-Serif;
      fill: #FFD700;
    }
    .streak-dates {
      font: 400 10px 'Segoe UI', Ubuntu, Sans-Serif;
      fill: #9E9E9E;
    }
  

          
      /* Animations */
      @keyframes scaleInAnimation {
        from {
          transform: translate(-5px, 5px) scale(0);
        }
        to {
          transform: translate(-5px, 5px) scale(1);
        }
      }
      @keyframes fadeInAnimation {
        from {
          opacity: 0;
        }
        to {
          opacity: 1;
        }
      }
    
          * { animation-duration: 0s !important; animation-delay: 0s !important; }
        </style>

        

        <rect
          data-testid="card-bg"
          x="0.5"
          y="0.5"
          rx="4.5"
          height="99%"
          stroke="#e4e2e2"
          width="549"
          fill="#151515"
          stroke-opacity="1"
        />

        
      <g
        data-testid="card-title"
        transform="translate(25, 35)"
      >
        <g transform="translate(0, 0)">
      <text
        x="0"
        y="0"
        class="header"
        data-testid="header"
      >Jason Ernst's GitHub Statistics</text>
    </g>
      </g>
    

        <g
          data-testid="main-card-body"
          transform="translate(0, 55)"
        >
          
    <svg x="0" y="0">
      <!-- Left column: stats + streak -->
      <g transform="translate(25, 5)">
        
      <g class="stagger" style="animation-delay: 450ms" transform="translate(0, 0)">
        <svg class="icon" viewBox="0 0 16 16" version="1.1" width="16" height="16">
          <path fill-rule="evenodd" d="M8 .25a.75.75 0 01.673.418l1.882 3.815 4.21.612a.75.75 0 01.416 1.279l-3.046 2.97.719 4.192a.75.75 0 01-1.088.791L8 12.347l-3.766 1.98a.75.75 0 01-1.088-.79l.72-4.194L.818 6.374a.75.75 0 01.416-1.28l4.21-.611L7.327.668A.75.75 0 018 .25zm0 2.445L6.615 5.5a.75.75 0 01-.564.41l-3.097.45 2.24 2.184a.75.75 0 01.216.664l-.528 3.084 2.769-1.456a.75.75 0 01.698 0l2.77 1.456-.53-3.084a.75.75 0 01.216-.664l2.24-2.183-3.096-.45a.75.75 0 01-.564-.41L8 2.694v.001z"/>
        </svg>
        <text class="stat bold" x="25" y="12.5">Stars</text>
        <text class="stat bold" x="344" y="12.5" text-anchor="end">1,878</text>
      </g>
    
      <g class="stagger" style="animation-delay: 600ms" transform="translate(0, 25)">
        <svg class="icon" viewBox="0 0 16 16" version="1.1" width="16" height="16">
          <path fill-rule="evenodd" d="M5 3.25a.75.75 0 11-1.5 0 .75.75 0 011.5 0zm0 2.122a2.25 2.25 0 10-1.5 0v.878A2.25 2.25 0 005.75 8.5h1.5v2.128a2.251 2.251 0 101.5 0V8.5h1.5a2.25 2.25 0 002.25-2.25v-.878a2.25 2.25 0 10-1.5 0v.878a.75.75 0 01-.75.75h-4.5A.75.75 0 015 6.25v-.878zm3.75 7.378a.75.75 0 11-1.5 0 .75.75 0 011.5 0zm3-8.75a.75.75 0 100-1.5.75.75 0 000 1.5z"></path>
        </svg>
        <text class="stat bold" x="25" y="12.5">Forks</text>
        <text class="stat bold" x="344" y="12.5" text-anchor="end">243</text>
      </g>
    
      <g class="stagger" style="animation-delay: 750ms" transform="translate(0, 50)">
        <svg class="icon" viewBox="0 0 16 16" version="1.1" width="16" height="16">
          <path fill-rule="evenodd" d="M1.643 3.143L.427 1.927A.25.25 0 000 2.104V5.75c0 .138.112.25.25.25h3.646a.25.25 0 00.177-.427L2.715 4.215a6.5 6.5 0 11-1.18 4.458.75.75 0 10-1.493.154 8.001 8.001 0 101.6-5.684zM7.75 4a.75.75 0 01.75.75v2.992l2.028.812a.75.75 0 01-.557 1.392l-2.5-1A.75.75 0 017 8.25v-3.5A.75.75 0 017.75 4z"/>
        </svg>
        <text class="stat bold" x="25" y="12.5">All-time contributions</text>
        <text class="stat bold" x="344" y="12.5" text-anchor="end">25,963</text>
      </g>
    
      <g class="stagger" style="animation-delay: 900ms" transform="translate(0, 75)">
        <svg class="icon" viewBox="0 0 16 16" version="1.1" width="16" height="16">
          <path d="M8 2a.75.75 0 01.75.75v4.5h4.5a.75.75 0 010 1.5h-4.5v4.5a.75.75 0 01-1.5 0v-4.5h-4.5a.75.75 0 010-1.5h4.5v-4.5A.75.75 0 018 2z"/>
        </svg>
        <text class="stat bold" x="25" y="12.5">Lines of code changed</text>
        <text class="stat bold" x="344" y="12.5" text-anchor="end">9,604,194</text>
      </g>
    
      <g class="stagger" style="animation-delay: 1050ms" transform="translate(0, 100)">
        <svg class="icon" viewBox="0 0 16 16" version="1.1" width="16" height="16">
          <path fill-rule="evenodd" d="M1.679 7.932c.412-.621 1.242-1.75 2.366-2.717C5.175 4.242 6.527 3.5 8 3.5c1.473 0 2.824.742 3.955 1.715 1.124.967 1.954 2.096 2.366 2.717a.119.119 0 010 .136c-.412.621-1.242 1.75-2.366 2.717C10.825 11.758 9.473 12.5 8 12.5c-1.473 0-2.825-.742-3.955-1.715-1.124-.967-1.954-2.096-2.366-2.717a.12.12 0 010-.136zM8 2c-1.981 0-3.67.992-4.933 2.078C1.797 5.169.88 6.423.43 7.1a1.542 1.542 0 000 1.798c.45.678 1.367 1.932 2.637 3.024C4.329 13.008 6.019 14 8 14c1.981 0 3.67-.992 4.933-2.078 1.27-1.091 2.187-2.345 2.637-3.023a1.542 1.542 0 000-1.798c-.45-.678-1.367-1.932-2.637-3.023C11.671 2.992 9.981 2 8 2zm0 8a2 2 0 100-4 2 2 0 000 4z"/>
        </svg>
        <text class="stat bold" x="25" y="12.5">Repository views (past two weeks)</text>
        <text class="stat bold" x="344" y="12.5" text-anchor="end">5,487</text>
      </g>
    
      <g class="stagger" style="animation-delay: 1200ms" transform="translate(0, 125)">
        <svg class="icon" viewBox="0 0 16 16" version="1.1" width="16" height="16">
          <path fill-rule="evenodd" d="M2 2.5A2.5 2.5 0 014.5 0h8.75a.75.75 0 01.75.75v12.5a.75.75 0 01-.75.75h-2.5a.75.75 0 110-1.5h1.75v-2h-8a1 1 0 00-.714 1.7.75.75 0 01-1.072 1.05A2.495 2.495 0 012 11.5v-9zm10.5-1V9h-8c-.356 0-.694.074-1 .208V2.5a1 1 0 011-1h8zM5 12.25v3.25a.25.25 0 00.4.2l1.45-1.087a.25.25 0 01.3 0L8.6 15.7a.25.25 0 00.4-.2v-3.25a.25.25 0 00-.25-.25h-3.5a.25.25 0 00-.25.25z"/>
        </svg>
        <text class="stat bold" x="25" y="12.5">Repositories with contributions</text>
        <text class="stat bold" x="344" y="12.5" text-anchor="end">167</text>
      </g>
    
        
    <g transform="translate(0, 150)">
      <!-- Horizontal divider (removed) -->

      <!-- Longest streak ring (left) -->
      <defs>
        <mask id="mask_ring_trophy">
          <rect width="344" height="148" fill="white"/>
          <ellipse cx="86" cy="20" rx="13" ry="18" fill="black"/>
        </mask>
      </defs>
      <g mask="url(#mask_ring_trophy)">
        <circle cx="86" cy="58" r="40" fill="none" stroke="#FFD700" stroke-width="5"
          />
      </g>
      <!-- Trophy icon -->
      <g transform="translate(86, 7)" stroke-opacity="0"
        >
        <path d="M -12 -0.5 L 15 -0.5 L 15 23.5 L -12 23.5 L -12 -0.5 Z" fill="none"/>
        <svg x="-10" y="0" width="20" height="20" viewBox="0 0 16 16">
          <path fill-rule="evenodd" d="M3.217 6.962A3.75 3.75 0 010 3.25v-.5C0 1.784.784 1 1.75 1h1.356c.228-.586.8-1 1.469-1h6.85c.669 0 1.241.414 1.469 1h1.356c.966 0 1.75.784 1.75 1.75v.5a3.75 3.75 0 01-3.217 3.712 5.014 5.014 0 01-2.17 2.288l.174 1.5H12.5a.75.75 0 010 1.5h-9a.75.75 0 110-1.5h1.913l.174-1.5a5.014 5.014 0 01-2.17-2.288zM2.75 2.5h-.5a.25.25 0 00-.25.25v.5c0 1.066.748 1.958 1.748 2.18A5.013 5.013 0 012.75 2.5zm10.5.25a.25.25 0 00-.25-.25h-.5c0 1.078-.292 2.089-.802 2.956A2.251 2.251 0 0013.5 3.25v-.5zM4.5 1.5a.5.5 0 00-.5.5v.5a3.5 3.5 0 107 0V2a.5.5 0 00-.5-.5h-6z" fill="#FFD700"/>
        </svg>
      </g>
      <!-- Longest streak number -->
      <text x="86" y="66" text-anchor="middle" class="streak-number"
        >39</text>
      <!-- Longest streak label -->
      <text x="86" y="118" text-anchor="middle" class="streak-label-longest">Longest Streak</text>
      <!-- Longest streak dates -->
      <text x="86" y="132" text-anchor="middle" class="streak-dates">Jul 22, 2024 - Aug 29, 2024</text>

      <!-- Current streak ring (right) -->
      <defs>
        <mask id="mask_ring_fire">
          <rect width="344" height="148" fill="white"/>
          <ellipse cx="240.79999999999998" cy="20" rx="13" ry="18" fill="black"/>
        </mask>
      </defs>
      <g mask="url(#mask_ring_fire)">
        <circle cx="240.79999999999998" cy="58" r="40" fill="none" stroke="#FB8C00" stroke-width="5"
          />
      </g>
      <!-- Fire icon -->
      <g transform="translate(240.79999999999998, 7)" stroke-opacity="0"
        >
        <path d="M -12 -0.5 L 15 -0.5 L 15 23.5 L -12 23.5 L -12 -0.5 Z" fill="none"/>
        <path d="M 1.5 0.67 C 1.5 0.67 2.24 3.32 2.24 5.47 C 2.24 7.53 0.89 9.2 -1.17 9.2 C -3.23 9.2 -4.79 7.53 -4.79 5.47 L -4.76 5.11 C -6.78 7.51 -8 10.62 -8 13.99 C -8 18.41 -4.42 22 0 22 C 4.42 22 8 18.41 8 13.99 C 8 8.6 5.41 3.79 1.5 0.67 Z M -0.29 19 C -2.07 19 -3.51 17.6 -3.51 15.86 C -3.51 14.24 -2.46 13.1 -0.7 12.74 C 1.07 12.38 2.9 11.53 3.92 10.16 C 4.31 11.45 4.51 12.81 4.51 14.2 C 4.51 16.85 2.36 19 -0.29 19 Z" fill="#FB8C00" stroke-opacity="0"/>
      </g>
      <!-- Current streak number -->
      <text x="240.79999999999998" y="66" text-anchor="middle" class="streak-number"
        >11</text>
      <!-- Current streak label -->
      <text x="240.79999999999998" y="118" text-anchor="middle" class="streak-label-current"
        >Current Streak</text>
      <!-- Current streak dates -->
      <text x="240.79999999999998" y="132" text-anchor="middle" class="streak-dates">Mar 9 - Mar 19</text>
    </g>
  
      </g>
      <!-- Divider -->
      
      <!-- Right column: languages -->
      
    <g transform="translate(389, 5)">
      
      <g class="stagger" style="animation-delay: 450ms" transform="translate(0, 0)">
        <circle cx="5" cy="8" r="5" fill="#A97BFF"/>
        <text x="15" y="12.5" class="lang-name">Kotlin 57.82%</text>
      </g>
    
      <g class="stagger" style="animation-delay: 600ms" transform="translate(0, 25)">
        <circle cx="5" cy="8" r="5" fill="#555555"/>
        <text x="15" y="12.5" class="lang-name">C 9.80%</text>
      </g>
    
      <g class="stagger" style="animation-delay: 750ms" transform="translate(0, 50)">
        <circle cx="5" cy="8" r="5" fill="#89e051"/>
        <text x="15" y="12.5" class="lang-name">Shell 7.69%</text>
      </g>
    
      <g class="stagger" style="animation-delay: 900ms" transform="translate(0, 75)">
        <circle cx="5" cy="8" r="5" fill="#3178c6"/>
        <text x="15" y="12.5" class="lang-name">TypeScript 7.24%</text>
      </g>
    
      <g class="stagger" style="animation-delay: 1050ms" transform="translate(0, 100)">
        <circle cx="5" cy="8" r="5" fill="#b07219"/>
        <text x="15" y="12.5" class="lang-name">Java 5.46%</text>
      </g>
    
      <g class="stagger" style="animation-delay: 1200ms" transform="translate(0, 125)">
        <circle cx="5" cy="8" r="5" fill="#f1e05a"/>
        <text x="15" y="12.5" class="lang-name">JavaScript 4.93%</text>
      </g>
    
      <g class="stagger" style="animation-delay: 1350ms" transform="translate(0, 150)">
        <circle cx="5" cy="8" r="5" fill="#3572A5"/>
        <text x="15" y="12.5" class="lang-name">Python 3.79%</text>
      </g>
    
      <g class="stagger" style="animation-delay: 1500ms" transform="translate(0, 175)">
        <circle cx="5" cy="8" r="5" fill="#00ADD8"/>
        <text x="15" y="12.5" class="lang-name">Go 3.28%</text>
      </g>
    
    </g>
  
    </svg>
  
        </g>
      
    <g transform="translate(25, 44)">
      <rect rx="5" ry="5" x="0" y="0" width="500" height="8" fill="#ddd" opacity="0.3"/>
      <svg width="500">
        <rect x="0" y="0" height="8" fill="#A97BFF" width="289.0829694323144" rx="5" ry="5"/><rect x="289.0829694323144" y="0" height="8" fill="#555555" width="49.0174672489083" rx="0" ry="0"/><rect x="338.10043668122273" y="0" height="8" fill="#89e051" width="38.427947598253276" rx="0" ry="0"/><rect x="376.52838427947603" y="0" height="8" fill="#3178c6" width="36.18995633187773" rx="0" ry="0"/><rect x="412.71834061135377" y="0" height="8" fill="#b07219" width="27.292576419213976" rx="0" ry="0"/><rect x="440.0109170305677" y="0" height="8" fill="#f1e05a" width="24.67248908296943" rx="0" ry="0"/><rect x="464.68340611353716" y="0" height="8" fill="#3572A5" width="18.941048034934497" rx="0" ry="0"/><rect x="483.62445414847167" y="0" height="8" fill="#00ADD8" width="16.375545851528383" rx="0" ry="0"/>
      </svg>
    </g>
  </svg>
    